<?xml version="1.0" encoding="UTF-8"?>
<svg version="1.1" xmlns="http://www.w3.org/2000/svg" width="200" height="200" viewBox="0 0 200 200">
<defs>
<clipPath id="favicon-circle">
<circle cx="100" cy="100" r="100"/>
</clipPath>
</defs>
<g clip-path="url(#favicon-circle)">
<circle cx="100" cy="100" r="100" fill="#A8659D"/>
<path d="M0 0 C2.31 0.66 4.62 1.32 7 2 C6.67 2.99 6.34 3.98 6 5 C6.99 5.495 6.99 5.495 8 6 C7.95875 6.9075 7.9175 7.815 7.875 8.75 C7.99531556 11.8782046 8.3914708 13.38614006 10 16 C8.35 17.65 6.7 19.3 5 21 C6.96822886 21 8.50528545 19.15719836 10 18 C9.13305722 22.56130124 6.69032061 25.30293339 3 28 C0.68959059 28.91707903 -1.61612253 29.6049326 -4.0078125 30.27734375 C-6.61590743 31.2234174 -7.73774114 32.55963286 -9 35 C-8.67 34.67 -8.34 34.34 -8 34 C-4.9314804 31.80820029 -2.14932096 30.05806926 1.375 28.6875 C6.00956543 26.53002989 9.31595789 23.4926633 13 20 C12.4498914 17.41125365 12.07805332 16.09606563 10.375 14 C9 12 9 12 9.3125 9.75 C9.539375 9.1725 9.76625 8.595 10 8 C10.99 8 11.98 8 13 8 C12.9175 8.7425 12.835 9.485 12.75 10.25 C12.77151094 13.11915956 12.77151094 13.11915956 14.75 15.375 C16.82744622 17.24882436 16.82744622 17.24882436 19.125 16.8125 C20.43341635 16.24551958 21.72456434 15.63771783 23 15 C22.67 16.65 22.34 18.3 22 20 C20.35 20.33 18.7 20.66 17 21 C20.5219721 21.08004482 23.61981469 21.04005702 27 20 C27.33 20.66 27.66 21.32 28 22 C28.721875 21.835 29.44375 21.67 30.1875 21.5 C33 22 33 22 34.375 23.5 C36.65643667 26.97647492 37.93386829 29.60320971 38.625 33.75 C40.40012889 42.40375336 51.01273535 50.38077153 57.63671875 55.59765625 C59 57 59 57 59 60 C56.69921875 60.23046875 56.69921875 60.23046875 54 60 C52.33203125 58.42578125 52.33203125 58.42578125 50.8125 56.3125 C46.96942984 51.52566703 42.58960371 49.33931101 37 47 C37.66 45.35 38.32 43.7 39 42 C38.01 41.67 37.02 41.34 36 41 C35.50113281 42.175625 35.50113281 42.175625 34.9921875 43.375 C32.28052121 46.94801912 29.32704816 47.25801672 25.125 48 C19.22875217 49.05251783 15.94524289 50.12816795 12 55 C10.68839845 57.0301834 10.68839845 57.0301834 9.8125 59.0625 C9.50957031 59.71347656 9.20664063 60.36445313 8.89453125 61.03515625 C8.26883242 62.40950782 7.66366085 63.79330627 7.07421875 65.18359375 C6 67 6 67 3 68 C3.66 68.66 4.32 69.32 5 70 C3.68 70 2.36 70 1 70 C1.54654141 64.12467986 3.22925121 58.79283982 5.01171875 53.1796875 C6.16197885 49.47885067 7.11265714 45.77120715 8 42 C7.2575 41.71125 6.515 41.4225 5.75 41.125 C3.43095872 40.17630129 1.23798576 39.11899288 -1 38 C-2.485 37.505 -2.485 37.505 -4 37 C-3.66226563 37.56847656 -3.32453125 38.13695312 -2.9765625 38.72265625 C-0.25311261 43.43753048 1.75866982 47.69613469 3 53 C2.43152344 52.66097656 1.86304687 52.32195312 1.27734375 51.97265625 C-1.35831471 50.84696336 -2.64446489 50.9679603 -5.4375 51.4375 C-8.16693797 51.88845062 -9.83617718 52.04227686 -12.54296875 51.34375 C-15.0334025 50.72973562 -15.0334025 50.72973562 -16.9921875 52.22265625 C-17.61351563 52.82980469 -18.23484375 53.43695313 -18.875 54.0625 C-19.89787109 55.03703125 -19.89787109 55.03703125 -20.94140625 56.03125 C-21.96041016 57.00578125 -21.96041016 57.00578125 -23 58 C-24.26596414 59.02686555 -25.53647943 60.04815807 -26.8125 61.0625 C-31.84560622 65.44506868 -33.0661508 70.10762619 -34.4375 76.5 C-36.09357958 84.02065007 -39.07571934 88.44001176 -44.73046875 93.5078125 C-46.24135909 95.28368976 -46.59535112 96.72811592 -47 99 C-42.63525007 98.51670589 -40.92065734 97.34086852 -38.125 94 C-37.43535156 93.19046875 -36.74570313 92.3809375 -36.03515625 91.546875 C-34.13078506 89.1636696 -32.34966759 86.72135007 -30.5625 84.25 C-27.07701964 79.66931136 -23.16467685 77.37708787 -18 75 C-17.30777344 74.65066406 -16.61554688 74.30132812 -15.90234375 73.94140625 C-13.64933431 72.82646729 -11.34194768 71.91075743 -9 71 C-8.731875 72.134375 -8.46375 73.26875 -8.1875 74.4375 C-7.795625 75.613125 -7.40375 76.78875 -7 78 C-4.32356043 78.89214652 -2.74615622 79.13540211 0 79.125 C1.0209375 79.12886719 1.0209375 79.12886719 2.0625 79.1328125 C4.21874781 79.06631126 4.21874781 79.06631126 7 78 C7.05607422 79.01320312 7.05607422 79.01320312 7.11328125 80.046875 C7.17902344 80.93890625 7.24476562 81.8309375 7.3125 82.75 C7.37050781 83.63171875 7.42851563 84.5134375 7.48828125 85.421875 C7.81105419 88.05587555 7.81105419 88.05587555 9.5078125 89.94140625 C11.51448199 92.70976966 11.43473691 94.80383892 11.5625 98.1875 C11.64474176 101.31599298 11.64474176 101.31599298 12 104 C12.66 104.33 13.32 104.66 14 105 C14.19259228 97.88478515 14.10595386 91.84435004 12 85 C11.83473678 81.99123727 11.87715206 79.00977458 12 76 C12.33 76.99 12.66 77.98 13 79 C13.66 79 14.32 79 15 79 C19.7601476 87.72324723 19.7601476 87.72324723 20 93 C19.1875 95 19.1875 95 18 97 C17.31039038 98.99220557 16.63920943 100.99105606 16 103 C16.99 102.67 17.98 102.34 19 102 C21.75847759 93.86975025 22.2794538 87.17630063 18.4375 79.375 C17.98117188 78.45203125 17.52484375 77.5290625 17.0546875 76.578125 C15.59804599 73.01744576 15.90680743 70.64397525 17 67 C17.226875 66.13375 17.45375 65.2675 17.6875 64.375 C19.49967686 61.09582283 21.74169716 58.80064104 25 57 C27.03125 56.640625 27.03125 56.640625 29.125 56.5 C33.12716731 56.41532712 33.12716731 56.41532712 35.2421875 53.46875 C35.82226562 52.6540625 36.40234375 51.839375 37 51 C47.96982232 57.49352004 47.96982232 57.49352004 50.8125 61.4375 C52.79726009 64.3127066 52.79726009 64.3127066 56.1875 64.5625 C57.115625 64.376875 58.04375 64.19125 59 64 C61.26579384 61.20223445 61.26579384 61.20223445 61 58.125 C59.48198747 53.38121085 56.09397785 51.38584841 52.1171875 48.75390625 C48.35160624 46.22513725 46.18721758 44.61695727 45 40 C45.639375 40.33 46.27875 40.66 46.9375 41 C49.88776567 41.96335205 51.47563808 42.02647055 54.5 41.875 C57.82828721 41.8086554 58.86805768 41.9254239 61.875 43.625 C64.82696294 46.92425269 66.93310695 49.6336584 67.0625 54.2109375 C66.68725326 58.91715697 65.78886657 62.09808803 63 66 C59.92826963 68.57230568 56.71687117 70.49971513 53 72 C49.21902586 71.57989176 47.24448824 70.76275086 44.0625 68.8125 C42.38545399 65.95165681 42.81709801 63.23126842 43 60 C39.60538272 60.28288477 38.25867941 60.74132059 35.8125 63.1875 C33.93721169 66.09743014 32.98441396 68.6951817 32 72 C31.443125 72.9590625 31.443125 72.9590625 30.875 73.9375 C29.54485022 77.07285305 29.70479816 79.63469901 30 83 C32.28556855 88.02825081 34.9832497 90.21799478 40.0625 92.1875 C46.44009098 91.88380519 50.22937202 87.98542089 55 84 C55.83917969 83.32453125 56.67835938 82.6490625 57.54296875 81.953125 C77.62072824 64.97161777 88.53865077 40.89927177 91 15 C91.33 15 91.66 15 92 15 C92 45.36 92 75.72 92 107 C26 107 -40 107 -108 107 C-108 18 -108 18 -105 14 C-103.82460004 14.92652701 -102.65989423 15.86663387 -101.5 16.8125 C-100.8503125 17.33457031 -100.200625 17.85664062 -99.53125 18.39453125 C-98 20 -98 20 -98 23 C-98.639375 23.61875 -99.27875 24.2375 -99.9375 24.875 C-102.29796442 27.30699365 -102.55581182 28.71300749 -103 32 C-103.495 32.495 -103.495 32.495 -104 33 C-99.76432639 47.11240564 -93.99137765 62.67814789 -83 73 C-79.81293346 73.43411141 -79.81293346 73.43411141 -77 73 C-77.33 75.31 -77.66 77.62 -78 80 C-77.4225 80.28875 -76.845 80.5775 -76.25 80.875 C-74.16666667 81.91666667 -72.08333333 82.95833333 -70 84 C-69.01 83.34 -68.02 82.68 -67 82 C-66.67 82.66 -66.34 83.32 -66 84 C-64.68 84 -63.36 84 -62 84 C-62 82.35 -62 80.7 -62 79 C-60.68 79 -59.36 79 -58 79 C-57.9729957 77.54176788 -57.95360213 76.08339325 -57.9375 74.625 C-57.92589844 73.81289062 -57.91429687 73.00078125 -57.90234375 72.1640625 C-57.85533666 69.95062858 -57.85533666 69.95062858 -59 68 C-58.72057545 66.32345271 -58.39171753 64.65391846 -58 63 C-55.03 62.505 -55.03 62.505 -52 62 C-51.34 62.99 -50.68 63.98 -50 65 C-49.34 63.989375 -48.68 62.97875 -48 61.9375 C-45.96669554 59.06560104 -43.84624562 56.91108592 -41.125 54.6875 C-29.66726273 44.94949815 -24.19631103 29.7169701 -19 16 C-17 19 -17 19 -16.6875 21.5625 C-16.25228011 24.18145503 -16.25228011 24.18145503 -13.875 25.25 C-10.59776333 26.10493131 -7.36194891 26.6044766 -4 27 C-4.5775 26.66226563 -5.155 26.32453125 -5.75 25.9765625 C-6.4925 25.53054687 -7.235 25.08453125 -8 24.625 C-8.7425 24.18414062 -9.485 23.74328125 -10.25 23.2890625 C-10.8275 22.86367187 -11.405 22.43828125 -12 22 C-12 21.34 -12 20.68 -12 20 C-11.34 20 -10.68 20 -10 20 C-10 20.66 -10 21.32 -10 22 C-4.30164111 21.53482785 -0.78725598 20.15958895 4 17 C5.74226302 13.51547396 4.85747898 9.70507708 4 6 C2.09675987 3.05336759 2.09675987 3.05336759 0 1 C0 0.67 0 0.34 0 0 Z " fill="#FCFAFC" transform="translate(108,93)"/>
<path d="M0 0 C2.31 0.66 4.62 1.32 7 2 C6.67 2.99 6.34 3.98 6 5 C6.99 5.495 6.99 5.495 8 6 C7.95875 6.9075 7.9175 7.815 7.875 8.75 C7.99531556 11.8782046 8.3914708 13.38614006 10 16 C8.35 17.65 6.7 19.3 5 21 C6.96822886 21 8.50528545 19.15719836 10 18 C9.13305722 22.56130124 6.69032061 25.30293339 3 28 C0.68959059 28.91707903 -1.61612253 29.6049326 -4.0078125 30.27734375 C-6.61590743 31.2234174 -7.73774114 32.55963286 -9 35 C-8.67 34.67 -8.34 34.34 -8 34 C-4.9314804 31.80820029 -2.14932096 30.05806926 1.375 28.6875 C6.00956543 26.53002989 9.31595789 23.4926633 13 20 C12.4498914 17.41125365 12.07805332 16.09606563 10.375 14 C9 12 9 12 9.3125 9.75 C9.539375 9.1725 9.76625 8.595 10 8 C10.99 8 11.98 8 13 8 C12.9175 8.7425 12.835 9.485 12.75 10.25 C12.77151094 13.11915956 12.77151094 13.11915956 14.75 15.375 C16.82744622 17.24882436 16.82744622 17.24882436 19.125 16.8125 C20.43341635 16.24551958 21.72456434 15.63771783 23 15 C22.505 17.475 22.505 17.475 22 20 C20.35 20.33 18.7 20.66 17 21 C20.5219721 21.08004482 23.61981469 21.04005702 27 20 C27.495 20.99 27.495 20.99 28 22 C28.721875 21.835 29.44375 21.67 30.1875 21.5 C33 22 33 22 34.375 23.5 C36.65643667 26.97647492 37.93386829 29.60320971 38.625 33.75 C40.40012889 42.40375336 51.01273535 50.38077153 57.63671875 55.59765625 C59 57 59 57 59 60 C56.69921875 60.23046875 56.69921875 60.23046875 54 60 C52.33203125 58.42578125 52.33203125 58.42578125 50.8125 56.3125 C46.96942984 51.52566703 42.58960371 49.33931101 37 47 C37.66 45.35 38.32 43.7 39 42 C37.515 41.505 37.515 41.505 36 41 C35.50113281 42.175625 35.50113281 42.175625 34.9921875 43.375 C32.28052121 46.94801912 29.32704816 47.25801672 25.125 48 C19.22875217 49.05251783 15.94524289 50.12816795 12 55 C10.68839845 57.0301834 10.68839845 57.0301834 9.8125 59.0625 C9.50957031 59.71347656 9.20664063 60.36445313 8.89453125 61.03515625 C8.26883242 62.40950782 7.66366085 63.79330627 7.07421875 65.18359375 C6 67 6 67 3 68 C3.66 68.66 4.32 69.32 5 70 C3.68 70 2.36 70 1 70 C1.54654141 64.12467986 3.22925121 58.79283982 5.01171875 53.1796875 C6.16197885 49.47885067 7.11265714 45.77120715 8 42 C7.2575 41.71125 6.515 41.4225 5.75 41.125 C3.43095872 40.17630129 1.23798576 39.11899288 -1 38 C-2.485 37.505 -2.485 37.505 -4 37 C-3.6390625 37.63808594 -3.278125 38.27617187 -2.90625 38.93359375 C-2.4421875 39.75988281 -1.978125 40.58617187 -1.5 41.4375 C-1.0359375 42.26121094 -0.571875 43.08492187 -0.09375 43.93359375 C1 46 1 46 1 47 C-0.07378906 47.10957031 -1.14757812 47.21914062 -2.25390625 47.33203125 C-3.6901678 47.49161587 -5.12636233 47.65180442 -6.5625 47.8125 C-7.26697266 47.88275391 -7.97144531 47.95300781 -8.69726562 48.02539062 C-14.21466999 48.66103629 -19.52976973 49.67607039 -23.71484375 53.61328125 C-24.11832031 54.17402344 -24.52179688 54.73476562 -24.9375 55.3125 C-27.11848687 58.11495087 -29.23562896 59.96599489 -32.1875 61.9375 C-37.79654677 65.97601367 -38.62212436 70.93011317 -39.8125 77.4375 C-41.31967984 84.77075317 -46.38371377 90.31841695 -51 96 C-51 96.33 -51 96.66 -51 97 C-53.25 97.25 -53.25 97.25 -56 97 C-57.38176866 95.7169291 -58.70317626 94.36886951 -60 93 C-62.36137895 91.46674353 -64.75078078 89.99953657 -67.171875 88.5625 C-67.77515625 88.046875 -68.3784375 87.53125 -69 87 C-69 85.68 -69 84.36 -69 83 C-68.01 82.505 -68.01 82.505 -67 82 C-66.67 82.66 -66.34 83.32 -66 84 C-64.68 84 -63.36 84 -62 84 C-62 82.35 -62 80.7 -62 79 C-60.68 79 -59.36 79 -58 79 C-57.9729957 77.54176788 -57.95360213 76.08339325 -57.9375 74.625 C-57.92589844 73.81289062 -57.91429687 73.00078125 -57.90234375 72.1640625 C-57.85533666 69.95062858 -57.85533666 69.95062858 -59 68 C-58.72057545 66.32345271 -58.39171753 64.65391846 -58 63 C-55.03 62.505 -55.03 62.505 -52 62 C-51.34 62.99 -50.68 63.98 -50 65 C-49.34 63.989375 -48.68 62.97875 -48 61.9375 C-45.96669554 59.06560104 -43.84624562 56.91108592 -41.125 54.6875 C-29.66726273 44.94949815 -24.19631103 29.7169701 -19 16 C-17 19 -17 19 -16.6875 21.5625 C-16.25228011 24.18145503 -16.25228011 24.18145503 -13.875 25.25 C-10.59776333 26.10493131 -7.36194891 26.6044766 -4 27 C-4.5775 26.66226563 -5.155 26.32453125 -5.75 25.9765625 C-6.4925 25.53054687 -7.235 25.08453125 -8 24.625 C-8.7425 24.18414062 -9.485 23.74328125 -10.25 23.2890625 C-10.8275 22.86367187 -11.405 22.43828125 -12 22 C-12 21.34 -12 20.68 -12 20 C-11.34 20 -10.68 20 -10 20 C-10 20.66 -10 21.32 -10 22 C-4.30164111 21.53482785 -0.78725598 20.15958895 4 17 C5.74226302 13.51547396 4.85747898 9.70507708 4 6 C2.09675987 3.05336759 2.09675987 3.05336759 0 1 C0 0.67 0 0.34 0 0 Z " fill="#F7F1F6" transform="translate(108,93)"/>
<path d="M0 0 C1.16015625 -0.03867187 1.16015625 -0.03867187 2.34375 -0.078125 C5.03367559 0.3312115 5.891458 1.08995788 7.5 3.25 C7.6875 5.9375 7.6875 5.9375 7.5 8.25 C6.18 8.58 4.86 8.91 3.5 9.25 C3.17 8.26 2.84 7.27 2.5 6.25 C1.51 6.745 1.51 6.745 0.5 7.25 C0.45875 8.52875 0.4175 9.8075 0.375 11.125 C0.35179687 11.84429687 0.32859375 12.56359375 0.3046875 13.3046875 C0.31668311 15.48863645 0.31668311 15.48863645 2.5 17.25 C8.44381039 18.0731536 13.40894493 17.56510563 18.5 14.25 C20.1742923 12.92625499 21.84203871 11.59414282 23.5 10.25 C25.08651682 11.80926748 26.66907315 13.37256518 28.25 14.9375 C29.13171875 15.80761719 30.0134375 16.67773438 30.921875 17.57421875 C33.31000501 20.05280823 35.55732225 22.40671193 37.5 25.25 C36.5 28.25 36.5 28.25 33.625 30.5625 C29.27889456 34.07482023 27.54029211 38.05504001 26.5625 43.5 C26.05859699 49.87919763 28.23400475 55.51500791 32.29296875 60.4140625 C32.91816406 61.08179688 33.54335937 61.74953125 34.1875 62.4375 C36.52251745 64.96416035 37.52500828 66.31752235 38.75 69.625 C38.34599182 75.48311863 35.93744529 80.57627175 31.96875 84.9296875 C28.38476628 88.01995918 25.25756051 90.25 20.5 90.25 C21.88361869 85.82242019 24.34242262 82.62264785 27.16015625 79.01953125 C30.18325428 75.02692657 30.0814647 71.10396618 29.5 66.25 C26.83385925 61.25098609 22.50332199 59.42377339 17.5 57.25 C17.7165625 56.26902344 17.933125 55.28804687 18.15625 54.27734375 C20.15103914 44.77631597 20.87670078 35.96050908 20.5 26.25 C19.18 26.25 17.86 26.25 16.5 26.25 C14.25450805 28.56557094 14.25450805 28.56557094 12.1875 31.625 C11.79941162 32.16648682 11.41132324 32.70797363 11.01147461 33.26586914 C10.21571714 34.37999483 9.42576241 35.49828743 8.64160156 36.62060547 C7.58770239 38.12482341 6.50972541 39.61209468 5.4296875 41.09765625 C1.99367183 45.78232162 1.99367183 45.78232162 -0.54296875 50.97265625 C-1.5 53.25 -1.5 53.25 -3.875 54.25 C-5.174375 54.745 -5.174375 54.745 -6.5 55.25 C-7.16 56.11625 -7.82 56.9825 -8.5 57.875 C-10.5 60.25 -10.5 60.25 -13.1875 60.625 C-15.5 60.25 -15.5 60.25 -16.5 59.25 C-16.644375 58.13625 -16.78875 57.0225 -16.9375 55.875 C-17.25300217 52.16489453 -17.25300217 52.16489453 -19.5 49.25 C-18.77554688 49.04246094 -18.05109375 48.83492187 -17.3046875 48.62109375 C-10.55647191 46.47066238 -6.37869577 44.26049803 -2.5 38.25 C-0.62810214 34.50620427 -0.95419504 30.32573923 -1.5 26.25 C-3.0864471 22.60945908 -4.86338677 19.06830662 -8.5 17.25 C-14.49203232 16.84376052 -18.14198848 17.57099424 -23.5 20.25 C-21.54954525 11.3842966 -17.01150208 7.27710289 -9.5859375 2.44921875 C-6.36274122 0.59618269 -3.65779613 0.07315592 0 0 Z " fill="#FCF9FB" transform="translate(140.5,16.75)"/>
<path d="M0 0 C0.66 0.33 1.32 0.66 2 1 C1.9175 1.7425 1.835 2.485 1.75 3.25 C1.77151094 6.11915956 1.77151094 6.11915956 3.75 8.375 C5.82744622 10.24882436 5.82744622 10.24882436 8.125 9.8125 C9.43341635 9.24551958 10.72456434 8.63771783 12 8 C11.67 9.65 11.34 11.3 11 13 C9.35 13.33 7.7 13.66 6 14 C9.5219721 14.08004482 12.61981469 14.04005702 16 13 C16.33 13.66 16.66 14.32 17 15 C17.721875 14.835 18.44375 14.67 19.1875 14.5 C22 15 22 15 23.375 16.5 C25.65643667 19.97647492 26.93386829 22.60320971 27.625 26.75 C29.40012889 35.40375336 40.01273535 43.38077153 46.63671875 48.59765625 C48 50 48 50 48 53 C45.69921875 53.23046875 45.69921875 53.23046875 43 53 C41.33203125 51.42578125 41.33203125 51.42578125 39.8125 49.3125 C35.96942984 44.52566703 31.58960371 42.33931101 26 40 C26.66 38.35 27.32 36.7 28 35 C27.01 34.67 26.02 34.34 25 34 C24.66742188 34.78375 24.33484375 35.5675 23.9921875 36.375 C21.28052121 39.94801912 18.32704816 40.25801672 14.125 41 C8.22875217 42.05251783 4.94524289 43.12816795 1 48 C-0.31160155 50.0301834 -0.31160155 50.0301834 -1.1875 52.0625 C-1.49042969 52.71347656 -1.79335937 53.36445313 -2.10546875 54.03515625 C-2.73116758 55.40950782 -3.33633915 56.79330627 -3.92578125 58.18359375 C-5 60 -5 60 -8 61 C-7.34 61.66 -6.68 62.32 -6 63 C-7.32 63 -8.64 63 -10 63 C-9.45345859 57.12467986 -7.77074879 51.79283982 -5.98828125 46.1796875 C-4.83802115 42.47885067 -3.88734286 38.77120715 -3 35 C-4.11375 34.566875 -4.11375 34.566875 -5.25 34.125 C-12.47252747 31.17032967 -12.47252747 31.17032967 -15 27 C-15 26.01 -15 25.02 -15 24 C-14.443125 23.79246094 -13.88625 23.58492187 -13.3125 23.37109375 C-7.16374288 20.88874079 -2.74412011 17.60192578 2 13 C1.4498914 10.41125365 1.07805332 9.09606563 -0.625 7 C-2 5 -2 5 -1.75 2.8125 C-1 1 -1 1 0 0 Z " fill="#F7F2F6" transform="translate(119,100)"/>
<path d="M0 0 C-0.474375 0.680625 -0.94875 1.36125 -1.4375 2.0625 C-3.22458831 5.42222603 -3.54489746 8.24871792 -4 12 C-5.2065625 12.35191406 -6.413125 12.70382813 -7.65625 13.06640625 C-20.17612277 16.73890349 -20.17612277 16.73890349 -30 25 C-30.78375 25.94875 -31.5675 26.8975 -32.375 27.875 C-33.82735172 30.66798408 -34.34357921 32.41759918 -34.875 35.4375 C-35.53404817 39.06528811 -36.47000328 40.82652943 -39.0625 43.4375 C-42.34764175 46.90828859 -43.03006146 49.90837738 -43.23828125 54.6328125 C-42.76560803 59.32854972 -40.24147051 61.96544124 -36.75 64.875 C-35.88375 65.431875 -35.88375 65.431875 -35 66 C-35.45890625 66.40089844 -35.9178125 66.80179687 -36.390625 67.21484375 C-43.06985931 73.40295789 -46.22951744 79.94682996 -47 89 C-47.66 88.67 -48.32 88.34 -49 88 C-50.75072738 81.8658725 -49.91947726 77.51456816 -47 72 C-46.5875 71.360625 -46.175 70.72125 -45.75 70.0625 C-44.51461247 66.6651843 -45.04988352 63.40181565 -46 60 C-46.680625 59.05125 -47.36125 58.1025 -48.0625 57.125 C-50.83661515 52.65062073 -50.94445396 49.13128531 -50 44 C-42.97331921 24.82598034 -24.16286415 10.46916643 -7 1 C-6.25621094 0.566875 -5.51242188 0.13375 -4.74609375 -0.3125 C-3 -1 -3 -1 0 0 Z " fill="#FBF7FA" transform="translate(64,12)"/>
<path d="M0 0 C0.66 0.33 1.32 0.66 2 1 C2.40602304 7.25576234 1.80012492 13.17019114 0.6875 19.3125 C0.56979248 19.99376953 0.45208496 20.67503906 0.33081055 21.37695312 C-0.44903357 25.43633366 -1.43299678 28.72310947 -4 32 C-4.99 32 -5.98 32 -7 32 C-9.1774858 27.64502841 -6.32414433 21.43259663 -5 17 C-3.26096345 12.5473274 -1.15618534 8.26352505 1 4 C-4.97849966 9.08956822 -7.07911772 18.61199124 -9 26 C-9.5259375 27.4540625 -9.5259375 27.4540625 -10.0625 28.9375 C-11.15507059 32.08614015 -11.15507059 32.08614015 -11.25 35.875 C-11.70144282 40.22526717 -13.704507 42.41506868 -16.43359375 45.703125 C-19.36448153 50.00078588 -20.59340288 55.03553958 -22 60 C-22.66 60 -23.32 60 -24 60 C-27.3203125 54.921875 -27.3203125 54.921875 -28 53 C-26.94899908 49.90671321 -25.12316456 47.93832876 -22.875 45.625 C-20.57766787 43.03356496 -20.0305774 42.38986191 -19.75 38.8125 C-19.87375 37.4203125 -19.87375 37.4203125 -20 36 C-19.34428432 34.66124716 -18.67659808 33.32832122 -18 32 C-17.71322305 30.61125608 -17.46447263 29.21423185 -17.25 27.8125 C-16.08680285 22.29407631 -13.29880316 18.48337339 -10 14 C-8.76838992 12.23086518 -7.53923061 10.46002177 -6.3125 8.6875 C-4.25667213 5.75262849 -2.16357156 2.85643738 0 0 Z " fill="#F4EBF2" transform="translate(158,44)"/>
<path d="M0 0 C4.77225544 1.36350155 6.28576442 3.3612447 8.6875 7.625 C12.64834252 14.86082487 13.8377199 20.7750323 14.9375 28.875 C16.18171509 39.76347831 16.18171509 39.76347831 21.75 48.75 C24 51 24 51 24.0625 54.0625 C22.85815903 57.39214855 21.86807894 58.92860965 19 61 C16.25 61.25 16.25 61.25 14 61 C12.71241552 57.13724657 12.97454727 53.73173456 13.0625 49.69140625 C13.10759905 47.11065279 13.10759905 47.11065279 12.50268555 45.1262207 C11.94714836 42.77645218 11.88998009 40.70213596 11.89453125 38.2890625 C11.75141094 26.49887405 10.80568238 17.4040669 5 7 C5.18175781 7.89138672 5.18175781 7.89138672 5.3671875 8.80078125 C5.91944146 11.53231431 6.46047582 14.26592477 7 17 C7.19078125 17.94617188 7.3815625 18.89234375 7.578125 19.8671875 C8.57534074 25.00997154 9.23280961 29.76178373 9 35 C-0.01798976 24.44047353 -0.71197864 13.21115914 0 0 Z " fill="#F7F1F6" transform="translate(87,49)"/>
<path d="M0 0 C-1.24136719 0.15855469 -2.48273438 0.31710938 -3.76171875 0.48046875 C-5.40380245 0.71505214 -7.04572148 0.95079022 -8.6875 1.1875 C-9.91243164 1.33928711 -9.91243164 1.33928711 -11.16210938 1.49414062 C-16.68452055 2.3213844 -19.31842024 3.55648157 -23 8 C-24.13127657 9.01643856 -25.27535469 10.01900444 -26.4375 11 C-27.23994141 11.680625 -27.23994141 11.680625 -28.05859375 12.375 C-29.67615304 13.72893293 -31.37866812 14.98054076 -33.09765625 16.203125 C-36.5704087 19.09952069 -37.26072406 22.42960237 -38 26.75 C-39.42738998 33.58052652 -41.50080061 38.55043496 -46 44 C-46.78375 44.99 -47.5675 45.98 -48.375 47 C-48.91125 47.66 -49.4475 48.32 -50 49 C-50 49.33 -50 49.66 -50 50 C-51.65 50 -53.3 50 -55 50 C-55.495 48.515 -55.495 48.515 -56 47 C-55.39671875 46.55269531 -54.7934375 46.10539062 -54.171875 45.64453125 C-47.34627143 40.48129242 -43.15418127 36.94682577 -41.4765625 28.40234375 C-39.86715771 20.28936059 -37.79224344 15.86877627 -31 11 C-28.32607958 8.89906253 -25.94011212 6.93538413 -23.625 4.4375 C-17.69272302 -1.07104291 -7.22792338 -4.81861559 0 0 Z " fill="#B479AA" transform="translate(107,140)"/>
<path d="M0 0 C0.66 0.33 1.32 0.66 2 1 C0.55099852 3.81740393 -0.91073706 6.62800163 -2.375 9.4375 C-2.7875 10.23994141 -3.2 11.04238281 -3.625 11.86914062 C-4.22441406 13.01479492 -4.22441406 13.01479492 -4.8359375 14.18359375 C-5.20251465 14.89056396 -5.5690918 15.59753418 -5.94677734 16.32592773 C-7 18 -7 18 -9 19 C-9.185625 19.969375 -9.37125 20.93875 -9.5625 21.9375 C-11.35181001 28.66475082 -17.00066496 34.0383911 -22.67578125 37.75 C-26.78152165 39.89106759 -29.29920857 41 -34 41 C-33.52269162 39.5410574 -33.04308958 38.08286504 -32.5625 36.625 C-32.16224609 35.40683594 -32.16224609 35.40683594 -31.75390625 34.1640625 C-31 32 -31 32 -30 30 C-28.68 30.33 -27.36 30.66 -26 31 C-26 33 -26 35 -26 37 C-25.01 36.34 -24.02 35.68 -23 35 C-23.33 33.02 -23.66 31.04 -24 29 C-22.68 28.67 -21.36 28.34 -20 28 C-20 28.99 -20 29.98 -20 31 C-19.34 31 -18.68 31 -18 31 C-17.34 29.68 -16.68 28.36 -16 27 C-16.66 27 -17.32 27 -18 27 C-18 26.34 -18 25.68 -18 25 C-17.13375 24.34 -16.2675 23.68 -15.375 23 C-10.99218378 19.49168937 -8.70983222 14.82905998 -6 10 C-4.88064246 8.12162605 -3.7558502 6.24647744 -2.625 4.375 C-2.12226562 3.53710938 -1.61953125 2.69921875 -1.1015625 1.8359375 C-0.73804688 1.23007813 -0.37453125 0.62421875 0 0 Z " fill="#F7F2F7" transform="translate(82,109)"/>
<path d="M0 0 C0.66 0 1.32 0 2 0 C2.23074219 0.95261719 2.46148437 1.90523438 2.69921875 2.88671875 C3.02535156 4.14097656 3.35148437 5.39523438 3.6875 6.6875 C4.00074219 7.92886719 4.31398438 9.17023438 4.63671875 10.44921875 C6.14017536 14.36509858 7.99457306 16.15380098 11 19 C11.07549728 22.69936687 10.43765579 24.40603858 8.25 27.375 C5.58988985 29.29619066 4.20935531 29.35659503 1 29 C-0.00762191 25.97713428 -0.0724876 24.08618006 0 20.9375 C0.04564367 17.10850319 -0.11215282 13.42729835 -0.5625 9.625 C-0.95699579 6.18412005 -1.01049492 3.36831638 0 0 Z " fill="#FBF8FA" transform="translate(100,81)"/>
<path d="M0 0 C2.31 0.66 4.62 1.32 7 2 C6.67 2.99 6.34 3.98 6 5 C6.66 5.33 7.32 5.66 8 6 C7.95875 6.9075 7.9175 7.815 7.875 8.75 C7.99531556 11.8782046 8.3914708 13.38614006 10 16 C8.35 17.65 6.7 19.3 5 21 C6.96822886 21 8.50528545 19.15719836 10 18 C9.13350901 22.6447947 6.80144826 25.28347834 3 28 C-0.875 28.875 -0.875 28.875 -4 29 C-3.67 28.01 -3.34 27.02 -3 26 C-4.11375 25.7525 -5.2275 25.505 -6.375 25.25 C-10 24 -10 24 -11.4375 21.875 C-11.623125 21.25625 -11.80875 20.6375 -12 20 C-11.34 20 -10.68 20 -10 20 C-10 20.66 -10 21.32 -10 22 C-4.30164111 21.53482785 -0.78725598 20.15958895 4 17 C5.74226302 13.51547396 4.85747898 9.70507708 4 6 C2.09675987 3.05336759 2.09675987 3.05336759 0 1 C0 0.67 0 0.34 0 0 Z " fill="#F0E4EE" transform="translate(108,93)"/>
<path d="M0 0 C1.21386231 3.64158693 0.39046874 4.9813648 -1.19726562 8.34448242 C-6.61246999 19.11084306 -14.19397964 31.38534522 -26 36 C-30.47931533 37.2041995 -33.8190914 37.38606627 -38.25 35.9375 C-44.507902 31.52852359 -44.507902 31.52852359 -46 28 C-46.51934433 23.29377663 -46.57278392 18.70285746 -46 14 C-45.34 13.34 -44.68 12.68 -44 12 C-44.03480469 12.86882812 -44.06960937 13.73765625 -44.10546875 14.6328125 C-44.52841065 23.31447165 -44.52841065 23.31447165 -41 31 C-36.51587136 33.75798019 -32.10923982 33.70731744 -27 33 C-12.37182705 28.03557887 -6.31662383 12.78726411 0 0 Z " fill="#EFE2EC" transform="translate(81,117)"/>
<path d="M0 0 C-2.13770672 2.13770672 -3.83132291 2.93517623 -6.5625 4.1875 C-15.22488249 8.49365546 -21.11198554 12.72802396 -25.02734375 21.765625 C-26 24 -26 24 -28 27 C-29 26 -29 26 -29.3125 22.875 C-28.79145349 16.41402329 -25.95965533 12.66267361 -21.375 8.375 C-15.00251324 3.11799509 -8.43559037 -0.916912 0 0 Z " fill="#F7F1F6" transform="translate(110,4)"/>
<path d="M0 0 C0.66 0 1.32 0 2 0 C0.39662149 4.9194568 -1.29121029 9.78620453 -3.125 14.625 C-4.6631092 18.79902918 -5.60678006 22.57627567 -6 27 C-5.34 26.67 -4.68 26.34 -4 26 C-4.15481795 28.70931419 -4.48172081 30.46584039 -6.40234375 32.4453125 C-7.89771708 33.67679642 -9.4462924 34.8429837 -11 36 C-11.26703059 30.92641874 -11.12507273 27.67863654 -8.84765625 23.0390625 C-7.77228344 20.452221 -7.23065363 17.85909354 -6.625 15.125 C-5.29122413 9.46180192 -3.12097421 4.88500311 0 0 Z " fill="#BB87B2" transform="translate(157,48)"/>
<path d="M0 0 C1.5529438 4.03975245 0.55006204 7.83624739 -0.25 11.9375 C-0.43369141 12.99227539 -0.43369141 12.99227539 -0.62109375 14.06835938 C-1.4095348 18.23304552 -2.34968709 21.64774778 -5 25 C-5.99 25 -6.98 25 -8 25 C-10.17032609 20.65934781 -7.33628438 14.42897285 -6 10 C-2.67848101 2.67848101 -2.67848101 2.67848101 0 0 Z " fill="#F9F5F9" transform="translate(159,51)"/>
<path d="M0 0 C6.0414646 7.45113967 6.0414646 7.45113967 5.8515625 9.96484375 C3.71794408 15.06399602 -1.9479101 18.76378387 -6.875 20.9375 C-10 22 -10 22 -12 22 C-12.33 22.66 -12.66 23.32 -13 24 C-13.66 24.33 -14.32 24.66 -15 25 C-15.72693904 26.97888961 -16.39816251 28.97954558 -17 31 C-17.33 31 -17.66 31 -18 31 C-17.63619403 24.69402985 -17.63619403 24.69402985 -14.9375 21.75 C-11.97657675 19.98604572 -9.1782778 18.96418561 -5.9375 17.859375 C-2.88768174 16.50663303 -1.1651076 14.50340566 1 12 C0.67 11.67 0.34 11.34 0 11 C-1.65 12.32 -3.3 13.64 -5 15 C-3.47291037 11.56404834 -1.40072955 8.88087546 1 6 C0.34 4.35 -0.32 2.7 -1 1 C-0.67 0.67 -0.34 0.34 0 0 Z " fill="#B57CAB" transform="translate(116,102)"/>
<path d="M0 0 C1.32 0.66 2.64 1.32 4 2 C4.38747513 12.24656458 3.58045976 21.03143819 1 31 C0.34 30.67 -0.32 30.34 -1 30 C-0.855625 28.96101563 -0.71125 27.92203125 -0.5625 26.8515625 C0.46743235 19.1995874 1.33495249 11.74112427 1 4 C-0.65 5.32 -2.3 6.64 -4 8 C-4 4.09161134 -2.49432124 2.88405893 0 0 Z " fill="#AE70A3" transform="translate(158,41)"/>
<path d="M0 0 C0.33 0.99 0.66 1.98 1 3 C1.66 3 2.32 3 3 3 C7.7601476 11.72324723 7.7601476 11.72324723 8 17 C7.1875 19 7.1875 19 6 21 C5.31039038 22.99220557 4.63920943 24.99105606 4 27 C3.34 26.67 2.68 26.34 2 26 C2.02320312 25.35933594 2.04640625 24.71867187 2.0703125 24.05859375 C2.184835 18.56969406 1.54043733 14.29525334 0 9 C-0.16447337 5.99110486 -0.12285241 3.00988393 0 0 Z " fill="#EDDEEA" transform="translate(120,169)"/>
<path d="M0 0 C0.66 0.33 1.32 0.66 2 1 C1.67 2.32 1.34 3.64 1 5 C0.34 5 -0.32 5 -1 5 C-1.26683594 5.86109375 -1.53367187 6.7221875 -1.80859375 7.609375 C-6.29663624 20.38190248 -13.90039885 31.99138566 -26.15234375 38.2578125 C-28 39 -28 39 -30 39 C-30 38.34 -30 37.68 -30 37 C-29.3709375 36.74347656 -28.741875 36.48695313 -28.09375 36.22265625 C-20.6024564 32.87188186 -14.50850188 28.36076142 -10.9453125 20.74609375 C-10.26496753 18.84182922 -9.62951189 16.92166788 -9 15 C-8.54625 14.55785156 -8.0925 14.11570312 -7.625 13.66015625 C-5.35266559 11.33866076 -4.22300494 8.72754355 -2.8125 5.8125 C-2.28269531 4.72582031 -1.75289062 3.63914062 -1.20703125 2.51953125 C-0.80871094 1.68808594 -0.41039063 0.85664062 0 0 Z " fill="#B379A9" transform="translate(82,112)"/>
<path d="M0 0 C1.32435978 3.97307934 0.18129186 6.80974568 -0.9375 10.6875 C-1.13279297 11.38939453 -1.32808594 12.09128906 -1.52929688 12.81445312 C-2.01199136 14.54508944 -2.50500846 16.27284066 -3 18 C-3.66 18 -4.32 18 -5 18 C-6.25390625 16.3203125 -6.25390625 16.3203125 -7.5625 14.125 C-7.99691406 13.40570313 -8.43132812 12.68640625 -8.87890625 11.9453125 C-9.62444953 10.65165204 -10.33225871 9.33548258 -11 8 C-10.45730469 7.75765625 -9.91460937 7.5153125 -9.35546875 7.265625 C-3.80914453 4.69107324 -3.80914453 4.69107324 0 0 Z " fill="#F7F1F6" transform="translate(195,114)"/>
<path d="M0 0 C1.34173403 0.92543709 2.67320159 1.86577405 4 2.8125 C5.11375 3.59560547 5.11375 3.59560547 6.25 4.39453125 C6.8275 4.92433594 7.405 5.45414062 8 6 C8 6.99 8 7.98 8 9 C7.360625 9.61875 6.72125 10.2375 6.0625 10.875 C3.72009185 13.28839022 3.36484584 14.7163874 3 18 C2.01 17.34 1.02 16.68 0 16 C-0.22107787 13.2114711 -0.28107535 10.65346819 -0.1875 7.875 C-0.17396484 7.12089844 -0.16042969 6.36679688 -0.14648438 5.58984375 C-0.11109985 3.72625873 -0.05729167 1.86304022 0 0 Z " fill="#F3EAF1" transform="translate(2,107)"/>
<path d="M0 0 C-0.144375 0.56847656 -0.28875 1.13695312 -0.4375 1.72265625 C-1.61545505 6.62262205 -2.21427527 10.9645312 -2 16 C-5.23218107 13.26507756 -6.83857282 11.54125584 -8.0625 7.4375 C-8 4 -8 4 -6.3125 1.5625 C-4 0 -4 0 0 0 Z " fill="#F9F4F8" transform="translate(35,60)"/>
<path d="M0 0 C0.94002072 2.53980753 1.09161706 3.72788365 0.21484375 6.33203125 C-2.65859244 11.91194557 -5.76453242 16.37053544 -10 21 C-10 21.33 -10 21.66 -10 22 C-11.65 22 -13.3 22 -15 22 C-15.33 21.01 -15.66 20.02 -16 19 C-15.39671875 18.55269531 -14.7934375 18.10539062 -14.171875 17.64453125 C-7.29634 12.44352171 -3.15042331 8.03357944 0 0 Z " fill="#AD6DA2" transform="translate(67,168)"/>
<path d="M0 0 C5.43943779 5.62700461 7.15845996 12.64602158 7.25 20.3125 C7.14547917 23.63103638 6.85913876 26.77822966 6 30 C5.67 30 5.34 30 5 30 C4.98582031 28.99582031 4.97164063 27.99164063 4.95703125 26.95703125 C4.67151407 17.30868319 3.10485314 9.84588277 -1 1 C-0.67 0.67 -0.34 0.34 0 0 Z " fill="#EDDFEA" transform="translate(94,56)"/>
<path d="M0 0 C0.33 0 0.66 0 1 0 C1.103125 1.11375 1.20625 2.2275 1.3125 3.375 C1.539375 4.57125 1.76625 5.7675 2 7 C6.06100745 9.7073383 9.23559039 9.52302267 14 9 C18.72733653 7.27270396 21.61549761 4.68313495 25 1 C23.56314642 6.02898754 21.05763331 7.95677502 17 11 C13.55893945 12.72053028 9.77017635 12.38418032 6 12 C3.58130422 10.8410416 1.87677904 9.87677904 0 8 C-0.14115161 5.32941149 -0.04247107 2.67567762 0 0 Z " fill="#ECDDE9" transform="translate(42,124)"/>
<path d="M0 0 C0.66 0.33 1.32 0.66 2 1 C0.60234165 3.80158021 -0.82125131 6.58916399 -2.25 9.375 C-2.64574219 10.1690625 -3.04148437 10.963125 -3.44921875 11.78125 C-3.84238281 12.54179688 -4.23554687 13.30234375 -4.640625 14.0859375 C-4.99672852 14.7876709 -5.35283203 15.4894043 -5.71972656 16.21240234 C-7.23319863 18.32560648 -8.61963959 19.02941024 -11 20 C-9.68332049 17.32500685 -8.30154238 14.70558937 -6.8359375 12.109375 C-6.43632813 11.40039062 -6.03671875 10.69140625 -5.625 9.9609375 C-5.2125 9.23132813 -4.8 8.50171875 -4.375 7.75 C-3.95476562 7.00492187 -3.53453125 6.25984375 -3.1015625 5.4921875 C-2.06856935 3.66097237 -1.03440045 1.83042056 0 0 Z M-18 25 C-17.01 25.495 -17.01 25.495 -16 26 C-16.99 26.495 -16.99 26.495 -18 27 C-18 26.34 -18 25.68 -18 25 Z " fill="#F1E6EF" transform="translate(82,109)"/>
<path d="M0 0 C0.33 0 0.66 0 1 0 C1.33 1.65 1.66 3.3 2 5 C2.99 4.01 3.98 3.02 5 2 C4.14285714 10.57142857 4.14285714 10.57142857 2 14 C2.66 14.33 3.32 14.66 4 15 C2.02 15.33 0.04 15.66 -2 16 C-1.505 14.2675 -1.505 14.2675 -1 12.5 C0.08401934 8.22499413 0.15701377 4.39638547 0 0 Z " fill="#AF71A4" transform="translate(125,181)"/>
<path d="M0 0 C0.66 0 1.32 0 2 0 C0.1668733 5.99932374 -2.07321751 11.44920563 -5 17 C-5.33 17 -5.66 17 -6 17 C-5.62964591 10.21017493 -3.59523599 5.73115109 0 0 Z " fill="#AF70A4" transform="translate(157,48)"/>
<path d="M0 0 C1.1328125 1.7421875 1.1328125 1.7421875 2 4 C1.2421875 6.0703125 1.2421875 6.0703125 -0.125 8.125 C-0.56070313 8.80820313 -0.99640625 9.49140625 -1.4453125 10.1953125 C-3.14334599 12.1663966 -4.61720621 13.00802147 -7 14 C-5.23570801 9.02790438 -2.6060834 4.56561939 0 0 Z " fill="#DABDD5" transform="translate(74,111)"/>
<path d="M0 0 C0.61875 0.165 1.2375 0.33 1.875 0.5 C4.16786836 1.23577017 4.16786836 1.23577017 7 0 C7 0.99 7 1.98 7 3 C5.2984375 3.2165625 5.2984375 3.2165625 3.5625 3.4375 C0.19222799 3.61171478 0.19222799 3.61171478 -1 5 C-3.33297433 5.04092937 -5.66705225 5.04241723 -8 5 C-7 3 -7 3 -4 1.9375 C-2.515 1.4734375 -2.515 1.4734375 -1 1 C-0.67 0.67 -0.34 0.34 0 0 Z " fill="#C79BBF" transform="translate(132,110)"/>
<path d="M0 0 C0.66 0.33 1.32 0.66 2 1 C2 2.98 2 4.96 2 7 C1.01 7.495 1.01 7.495 0 8 C0.33 6.68 0.66 5.36 1 4 C-1.27521866 6.16687491 -3.15794162 8.45620509 -5 11 C-5.33 10.34 -5.66 9.68 -6 9 C-4.02 6.03 -2.04 3.06 0 0 Z " fill="#EEE1EC" transform="translate(158,44)"/>
<path d="M0 0 C0.99 0.33 1.98 0.66 3 1 C-1.46153846 7.92307692 -1.46153846 7.92307692 -4 10 C-4.66 10 -5.32 10 -6 10 C-5.61121002 7.18127263 -5.29189635 6.22804402 -3 4.4375 C-2.34 3.963125 -1.68 3.48875 -1 3 C-0.67 2.01 -0.34 1.02 0 0 Z " fill="#F5EDF4" transform="translate(64,121)"/>
<path d="M0 0 C2.31 0.66 4.62 1.32 7 2 C6.67 2.99 6.34 3.98 6 5 C6.66 5.33 7.32 5.66 8 6 C8 6.99 8 7.98 8 9 C7.01 9 6.02 9 5 9 C3.02431822 6.15501823 1.50098594 3.11743233 0 0 Z " fill="#E7D4E3" transform="translate(108,93)"/>
<path d="M0 0 C0.99 0.33 1.98 0.66 3 1 C2.67 2.65 2.34 4.3 2 6 C0.68 6.33 -0.64 6.66 -2 7 C-1.125 1.125 -1.125 1.125 0 0 Z " fill="#B174A6" transform="translate(55,173)"/>
<path d="M0 0 C0.66 0.33 1.32 0.66 2 1 C2.40729228 3.32156597 2.74438677 5.6568787 3 8 C2.01 8 1.02 8 0 8 C-1.4606285 5.35261084 -2 4.10551666 -2 1 C-1.34 0.67 -0.68 0.34 0 0 Z " fill="#DFC7DB" transform="translate(106,123)"/>
<path d="M0 0 C0.66 0.33 1.32 0.66 2 1 C1.67 2.32 1.34 3.64 1 5 C0.34 5 -0.32 5 -1 5 C-1.66 6.98 -2.32 8.96 -3 11 C-3.66 10.67 -4.32 10.34 -5 10 C-3.35 6.7 -1.7 3.4 0 0 Z " fill="#BA85B1" transform="translate(82,112)"/>
<path d="M0 0 C0.66 0.33 1.32 0.66 2 1 C2 3.66666667 2 6.33333333 2 9 C-0.0625 7.25 -0.0625 7.25 -2 5 C-1.80984746 2.78155374 -1.58477845 1.58477845 0 0 Z " fill="#E8D6E5" transform="translate(119,100)"/>
<path d="M0 0 C0.33 0.66 0.66 1.32 1 2 C0.22265625 3.7265625 0.22265625 3.7265625 -0.9375 5.625 C-1.618125 6.73875 -2.29875 7.8525 -3 9 C-3.66 8.67 -4.32 8.34 -5 8 C-4.45773019 4.20411134 -2.79872437 2.52788007 0 0 Z " fill="#AF70A4" transform="translate(77,123)"/>
</g>
</svg>
